<?xml version="1.0" encoding="utf-8"?>
<!-- Generator: Adobe Illustrator 21.0.0, SVG Export Plug-In . SVG Version: 6.00 Build 0)  -->
<svg version="1.1" id="Layer_1" xmlns="http://www.w3.org/2000/svg" xmlns:xlink="http://www.w3.org/1999/xlink" x="0px" y="0px"
	 viewBox="0 0 512 512" style="enable-background:new 0 0 512 512;" xml:space="preserve">
<g>
	<path d="M27.3,182.1c29-63.9,80.3-119.3,143.3-146.7C131.7,12,79.4,11.8,55,19.2C5.4,34.3,13.7,119.3,27.3,182.1z"/>
	<path d="M484.9,182.6c13.6-62.4,22.3-148.2-27.6-163.4c-24.4-7.4-76.8-7.2-115.7,16.3C404.7,62.9,456,118.5,484.9,182.6z"/>
	<path d="M346,257.1c8.3,0,15-6.7,15-15s-6.7-15-15-15s-15,6.7-15,15S337.7,257.1,346,257.1z"/>
	<polygon points="288,317.1 223.9,317.1 256,365.1 	"/>
	<path d="M181,242.1c0-8.3-6.7-15-15-15s-15,6.7-15,15s6.7,15,15,15S181,250.4,181,242.1z"/>
	<path d="M136,346.5L30.9,320.7c2.4,28.2,10.2,53.7,22.8,76.2l78.7-19.2l7.2,28.8L73.3,423c38.7,46.8,102.9,74.1,182.7,74.1
		s145-27.3,183.7-74.1l-67.3-16.5l7.2-28.8l78.4,19.5c12.9-22.5,20.7-48.3,23.1-76.5L376,346.5l-7.2-28.8l112.9-28.2
		c-5.1-91.8-65.2-189-150.7-226.2v103.8h-30V52.8c-9.6-2.4-19.8-3.9-30-4.8v149.1h-30V48c-10.2,0.9-20.4,2.4-30,4.8v114.3h-30V63.3
		C95.5,100.5,35.4,197.7,30.3,289.5l112.9,28.2L136,346.5z M346,197.1c24.9,0,45,20.1,45,45c0,24.9-20.1,45-45,45s-45-20.1-45-45
		C301,217.2,321.1,197.1,346,197.1z M223.9,287.1h64.2c11.1,0,21,6,26.4,15.9c5.1,9.6,4.5,21.6-1.5,30.6l-32.1,48
		c-2.4,3.9-6,7.2-9.9,9.3v1.2c0,8.4,6.6,15,15,15s15-6.6,15-15h30c0,24.9-20.1,45-45,45c-11.4,0-21.9-4.5-30-11.4
		c-8.1,6.9-18.6,11.4-30,11.4c-24.9,0-45-20.1-45-45h30c0,8.4,6.6,15,15,15s15-6.6,15-15v-1.2c-3.9-2.1-7.5-5.4-9.9-9.3l-32.1-48
		c-6-9-6.6-21-1.5-30.6C202.9,293.1,212.8,287.1,223.9,287.1z M121,242.1c0-24.9,20.1-45,45-45s45,20.1,45,45c0,24.9-20.1,45-45,45
		S121,267,121,242.1z"/>
	<path d="M481.1,320.7l30.9-7.8l-7.2-29.1l-23.1,5.7c0.3,4.2,0.3,8.4,0.3,12.6C482,308.4,481.7,314.7,481.1,320.7z"/>
	<path d="M493.4,436.5l7.2-28.8L458,397.2c-5.1,9.3-11.4,17.7-18.3,25.8L493.4,436.5z"/>
	<path d="M30,302.1c0-4.2,0-8.4,0.3-12.6l-23.1-5.7L0,312.9l30.9,7.8C30.3,314.7,30,308.4,30,302.1z"/>
	<path d="M11.4,407.4l7.2,29.1L73.3,423c-7.2-8.1-14.2-16.8-19.6-26.1L11.4,407.4z"/>
</g>
</svg>
