<?xml version="1.0" encoding="utf-8"?>
<!-- Generator: Adobe Illustrator 21.0.0, SVG Export Plug-In . SVG Version: 6.00 Build 0)  -->
<svg version="1.1" id="Layer_1" xmlns="http://www.w3.org/2000/svg" xmlns:xlink="http://www.w3.org/1999/xlink" x="0px" y="0px"
	 viewBox="0 0 512 512" style="enable-background:new 0 0 512 512;" xml:space="preserve">
<g>
	<path d="M241,381.6V420h30v-38.4c-5.6-3.3-10.8-7.1-15-11.9C251.8,374.5,246.6,378.3,241,381.6z"/>
	<path d="M442.3,226.8c-11.3-16.3-19.4-36.6-24.2-55.4c23.5-7.5,44.7-26.4,56.7-51.8c20-42.3,10.4-94.6-29.4-113.4
		c-40.2-18.9-87.4,7.4-107.2,49.4c-4.9,10.3-8,21-9.4,31.9c-32.2,22.4-57.5,56-72.8,92c-15.2-36.1-40.6-69.7-72.8-92
		c-1.4-10.9-4.5-21.6-9.4-31.9C154,13.5,107.7-12.6,67.6,6.2C27.5,25.1,18.3,77.6,38.2,119.6c12,25.4,33.3,44.3,56.7,51.8
		c-4.8,18.8-13.9,39.1-25.2,55.4C26.6,250.6,0,295.6,0,345c0,72.9,59.1,134.5,131.5,136.9c31,19.2,76,30.1,124.5,30.1
		s93.5-10.9,124.5-30.1c72.3-2.4,131.5-64,131.5-136.9C512,295.6,485.4,250.6,442.3,226.8z M151,180h30v30h-30V180z M301,390v60h-90
		v-60c-33.1,0-60-26.9-60-60h30c0,16.5,13.5,30,30,30s30-13.5,30-30v-1.5c-34.2-7-60-37.3-60-73.5h30c0,24.8,20.2,45,45,45
		s45-20.2,45-45h30c0,36.2-25.8,66.5-60,73.5v1.5c0,16.5,13.5,30,30,30s30-13.5,30-30h30C361,363.1,334.1,390,301,390z M361,210h-30
		v-30h30V210z"/>
	<path d="M209.1,66.3c0.4,1.4,1.1,2.8,1.5,4.2c16.9,13.3,32.3,29.6,45.4,47.9c13.1-18.3,28.5-34.6,45.4-47.9
		c0.3-1.4,1.1-2.8,1.5-4.2C272.8,59.3,239.2,59.3,209.1,66.3z"/>
</g>
</svg>
