<?xml version="1.0" encoding="iso-8859-1"?>
<!-- Generator: Adobe Illustrator 19.0.0, SVG Export Plug-In . SVG Version: 6.00 Build 0)  -->
<svg xmlns="http://www.w3.org/2000/svg" xmlns:xlink="http://www.w3.org/1999/xlink" version="1.1" id="Layer_1" x="0px" y="0px" viewBox="0 0 512 512" style="enable-background:new 0 0 512 512;" xml:space="preserve" width="512" height="512">
<g>
	<path d="M301,241c16.166,0,31.569,2.992,45.861,8.3C355.813,238.587,361,225.176,361,211c0-33.091-26.909-60-60-60   c-13.096,0-25.547,4.146-35.991,11.997L256,169.765l-9.009-6.768C236.547,155.146,224.096,151,211,151c-33.091,0-60,26.909-60,60   c0,14.176,5.187,27.587,14.139,38.3c14.291-5.308,29.694-8.3,45.861-8.3H301z M301,181h30v30h-30V181z M181,181h30v30h-30V181z"/>
	<path d="M256,31c-99.258,0-180,74.019-180,165c0,34.807,11.885,67.083,32.036,93.728c8.604-10.252,18.723-19.151,29.901-26.541   C127.136,248.066,121,229.944,121,211c0-49.629,40.371-90,90-90c16.011,0,31.377,4.131,45,12.041   c13.623-7.91,28.989-12.041,45-12.041c49.629,0,90,40.371,90,90c0,18.944-6.136,37.066-16.937,52.187   c11.179,7.39,21.297,16.291,29.901,26.541C424.115,263.083,436,230.807,436,196C436,105.019,355.258,31,256,31z"/>
	<path d="M450.37,122.448C460.379,145.168,466,169.975,466,196c0,26.027-5.621,50.83-15.63,73.552   C484.906,262.839,512,232.498,512,196C512,159.5,484.906,129.161,450.37,122.448z"/>
	<path d="M0,196c0,36.498,27.094,66.839,61.63,73.552C51.621,246.83,46,222.027,46,196c0-26.025,5.621-50.832,15.63-73.552   C27.094,129.161,0,159.5,0,196z"/>
	<path d="M106,376c0,57.891,47.109,105,105,105h90c57.891,0,105-47.109,105-105s-47.109-105-105-105h-90   C153.109,271,106,318.109,106,376z M271,316h30v30h-30V316z M211,316h30v30h-30V316z M187.006,383.485   C195.048,397.372,209.989,406,226,406h15v-45h30v45h15c16.011,0,30.952-8.628,38.994-22.515l25.957,15.029   C337.577,421.63,312.689,436,286,436h-60c-26.689,0-51.577-14.37-64.951-37.485L187.006,383.485z"/>
</g>















</svg>
