<?xml version="1.0" encoding="utf-8"?>
<!-- Generator: Adobe Illustrator 21.0.0, SVG Export Plug-In . SVG Version: 6.00 Build 0)  -->
<svg version="1.1" id="Calque_1" xmlns="http://www.w3.org/2000/svg" xmlns:xlink="http://www.w3.org/1999/xlink" x="0px" y="0px"
	 viewBox="0 0 511 511" style="enable-background:new 0 0 511 511;" xml:space="preserve">
<g>
	<path d="M255.5,216.6c-59.7,0-108.4,48.6-108.4,108.4v34.2c0,40.9,33.3,74.2,74.2,74.2h68.4c40.9,0,74.2-33.3,74.2-74.2V325
		C363.9,265.2,315.2,216.6,255.5,216.6z M312,391.2c-2.7,5-7.9,7.9-13.2,7.9c-2.4,0-4.8-0.6-7.1-1.8l-36.2-19.5l-36.2,19.5
		c-7.3,3.9-16.4,1.2-20.3-6.1c-3.9-7.3-1.2-16.4,6.1-20.3l35.4-19.1v-15.2c-8.2-2.8-15.5-7.8-21.1-14.8l-10.9-13.5
		c-8.6-10.7-10.3-25-4.4-37.4c5.9-12.4,18.1-20.1,31.8-20.1h39.1c13.7,0,25.9,7.7,31.8,20.1c5.9,12.4,4.2,26.7-4.4,37.4l-10.9,13.5
		c-5.6,6.9-12.9,12-21.1,14.8v15.2l35.4,19.1C313.2,374.8,316,383.9,312,391.2z"/>
	<path d="M279.8,283.9c-0.5-1.1-1.9-3-4.8-3h-39.1c-2.9,0-4.2,1.9-4.8,3c-0.5,1.1-1.2,3.3,0.7,5.6l10.9,13.5
		c3.1,3.9,7.8,6.1,12.7,6.1c5,0,9.6-2.2,12.7-6.1l10.9-13.5C281,287.2,280.4,285,279.8,283.9z"/>
	<path d="M467.5,217.2c-5.8-42-26.6-80.4-58.5-108.2C377,81.1,336.1,65.8,293.7,65.8h-76.5C174.9,65.8,134,81.1,102,109
		c-31.9,27.8-52.7,66.3-58.5,108.2L29.2,320.6c-6.4,46.2,7.5,93,38.2,128.2c30.7,35.2,75,55.4,121.7,55.4h132.7
		c46.7,0,91.1-20.2,121.7-55.4c30.7-35.2,44.6-81.9,38.2-128.2L467.5,217.2z M351.7,163.5c8.4,0,14.6,6.9,15,15
		c0.4,8.1-7.2,15-15,15c-8.4,0-14.6-6.9-15-15C336.3,170.4,343.8,163.5,351.7,163.5z M159.3,163.5c8.4,0,14.6,6.9,15,15
		c0.4,8.1-7.2,15-15,15c-8.4,0-14.6-6.9-15-15C144,170.4,151.5,163.5,159.3,163.5z M393.9,359.2c0,57.4-46.7,104.2-104.2,104.2
		h-68.4c-57.4,0-104.2-46.7-104.2-104.2V325c0-76.3,62.1-138.4,138.4-138.4c76.3,0,138.4,62.1,138.4,138.4V359.2z"/>
	<path d="M481.4,157.7c27.4-30,36.8-69.1,24-105.5C493.7,19.3,459.5,0.8,425.6,9l-22.1,5.4c-18.6,4.5-33.9,16.7-42.9,32.6
		c24.8,8.5,47.9,21.8,68,39.3C451.4,106.1,469.3,130.5,481.4,157.7z"/>
	<path d="M82.3,86.3c20.1-17.5,43.2-30.8,68-39.3c-9-15.9-24.2-28.1-42.9-32.6L85.4,9C51.5,0.8,17.3,19.3,5.7,52.2
		c-12.8,36.4-3.4,75.5,24,105.5C41.7,130.5,59.6,106.1,82.3,86.3z"/>
</g>
</svg>
